<?xml version="1.0" encoding="UTF-8" standalone="no"?>
<!-- Created with Inkscape (http://www.inkscape.org/) -->

<svg
   width="3.1397307mm"
   height="2.9633286mm"
   viewBox="0 0 3.1397307 2.9633286"
   version="1.1"
   id="svg1"
   xmlns:inkscape="http://www.inkscape.org/namespaces/inkscape"
   xmlns:sodipodi="http://sodipodi.sourceforge.net/DTD/sodipodi-0.dtd"
   xmlns="http://www.w3.org/2000/svg"
   xmlns:svg="http://www.w3.org/2000/svg">
  <sodipodi:namedview
     id="namedview1"
     pagecolor="#ffffff"
     bordercolor="#000000"
     borderopacity="0.25"
     inkscape:showpageshadow="2"
     inkscape:pageopacity="0.0"
     inkscape:pagecheckerboard="0"
     inkscape:deskcolor="#d1d1d1"
     inkscape:document-units="mm">
    <inkscape:page
       x="0"
       y="0"
       width="3.1397307"
       height="2.9633286"
       id="page2"
       margin="0"
       bleed="0" />
  </sodipodi:namedview>
  <defs
     id="defs1">
    <clipPath
       clipPathUnits="userSpaceOnUse"
       id="clipPath4359">
      <path
         d="M 0,0 H 595.396 V 842.01 H 0 V 0"
         transform="translate(-312.60001,-379.80001)"
         clip-rule="evenodd"
         id="path4359" />
    </clipPath>
    <clipPath
       clipPathUnits="userSpaceOnUse"
       id="clipPath4361">
      <path
         d="M 0,0 H 595.396 V 842.01 H 0 V 0"
         transform="translate(-312.60001,-382.30001)"
         clip-rule="evenodd"
         id="path4361" />
    </clipPath>
    <clipPath
       clipPathUnits="userSpaceOnUse"
       id="clipPath4363">
      <path
         d="M 0,0 H 595.396 V 842.01 H 0 V 0"
         transform="translate(-310.10001,-383.20001)"
         clip-rule="evenodd"
         id="path4363" />
    </clipPath>
    <clipPath
       clipPathUnits="userSpaceOnUse"
       id="clipPath4365">
      <path
         d="M 0,0 H 595.396 V 842.01 H 0 V 0"
         transform="translate(-312.60001,-384.00001)"
         clip-rule="evenodd"
         id="path4365" />
    </clipPath>
    <clipPath
       clipPathUnits="userSpaceOnUse"
       id="clipPath4367">
      <path
         d="M 0,0 H 595.396 V 842.01 H 0 V 0"
         transform="translate(-312.60001,-386.60001)"
         clip-rule="evenodd"
         id="path4367" />
    </clipPath>
    <clipPath
       clipPathUnits="userSpaceOnUse"
       id="clipPath4369">
      <path
         d="M 0,0 H 595.396 V 842.01 H 0 V 0"
         transform="translate(-314.30001,-384.70001)"
         clip-rule="evenodd"
         id="path4369" />
    </clipPath>
    <clipPath
       clipPathUnits="userSpaceOnUse"
       id="clipPath4371">
      <path
         d="M 0,0 H 595.396 V 842.01 H 0 V 0"
         transform="translate(-316.60001,-385.40001)"
         clip-rule="evenodd"
         id="path4371" />
    </clipPath>
    <clipPath
       clipPathUnits="userSpaceOnUse"
       id="clipPath4373">
      <path
         d="M 0,0 H 595.396 V 842.01 H 0 V 0"
         transform="translate(-315.00001,-383.30001)"
         clip-rule="evenodd"
         id="path4373" />
    </clipPath>
    <clipPath
       clipPathUnits="userSpaceOnUse"
       id="clipPath4375">
      <path
         d="M 0,0 H 595.396 V 842.01 H 0 V 0"
         transform="translate(-316.60001,-381.10001)"
         clip-rule="evenodd"
         id="path4375" />
    </clipPath>
    <clipPath
       clipPathUnits="userSpaceOnUse"
       id="clipPath4377">
      <path
         d="M 0,0 H 595.396 V 842.01 H 0 V 0"
         transform="translate(-314.30001,-381.90001)"
         clip-rule="evenodd"
         id="path4377" />
    </clipPath>
    <clipPath
       clipPathUnits="userSpaceOnUse"
       id="clipPath4379">
      <path
         d="M 0,0 H 595.396 V 842.01 H 0 V 0"
         transform="translate(-312.30001,-378.70001)"
         clip-rule="evenodd"
         id="path4379" />
    </clipPath>
    <clipPath
       clipPathUnits="userSpaceOnUse"
       id="clipPath4381">
      <path
         d="M 0,0 H 595.396 V 842.01 H 0 V 0"
         transform="translate(-312.60001,-379.80001)"
         clip-rule="evenodd"
         id="path4381" />
    </clipPath>
  </defs>
  <g
     inkscape:label="Layer 1"
     inkscape:groupmode="layer"
     id="layer1"
     transform="translate(-162.62608,-112.40457)">
    <g
       id="g1">
      <path
         id="path4358"
         d="M 0,0 V 2.5"
         style="fill:none;stroke:#009600;stroke-width:0.48;stroke-linecap:butt;stroke-linejoin:round;stroke-miterlimit:1.414;stroke-dasharray:none;stroke-opacity:1"
         transform="matrix(0,0.35277776,0.35277776,0,163.01414,113.63928)"
         clip-path="url(#clipPath4359)" />
      <path
         id="path4360"
         d="M 0,0 -2.5,0.9"
         style="fill:none;stroke:#009600;stroke-width:0.48;stroke-linecap:butt;stroke-linejoin:round;stroke-miterlimit:1.414;stroke-dasharray:none;stroke-opacity:1"
         transform="matrix(0,0.35277776,0.35277776,0,163.89609,113.63928)"
         clip-path="url(#clipPath4361)" />
      <path
         id="path4362"
         d="M 0,0 2.5,0.8"
         style="fill:none;stroke:#009600;stroke-width:0.48;stroke-linecap:butt;stroke-linejoin:round;stroke-miterlimit:1.414;stroke-dasharray:none;stroke-opacity:1"
         transform="matrix(0,0.35277776,0.35277776,0,164.21359,112.75734)"
         clip-path="url(#clipPath4363)" />
      <path
         id="path4364"
         d="M 0,0 V 2.6"
         style="fill:none;stroke:#009600;stroke-width:0.48;stroke-linecap:butt;stroke-linejoin:round;stroke-miterlimit:1.414;stroke-dasharray:none;stroke-opacity:1"
         transform="matrix(0,0.35277776,0.35277776,0,164.49581,113.63928)"
         clip-path="url(#clipPath4365)" />
      <path
         id="path4366"
         d="M 0,0 1.7,-1.9"
         style="fill:none;stroke:#009600;stroke-width:0.48;stroke-linecap:butt;stroke-linejoin:round;stroke-miterlimit:1.414;stroke-dasharray:none;stroke-opacity:1"
         transform="matrix(0,0.35277776,0.35277776,0,165.41303,113.63928)"
         clip-path="url(#clipPath4367)" />
      <path
         id="path4368"
         d="M 0,0 2.3,0.7"
         style="fill:none;stroke:#009600;stroke-width:0.48;stroke-linecap:butt;stroke-linejoin:round;stroke-miterlimit:1.414;stroke-dasharray:none;stroke-opacity:1"
         transform="matrix(0,0.35277776,0.35277776,0,164.74275,114.239)"
         clip-path="url(#clipPath4369)" />
      <path
         id="path4370"
         d="M 0,0 -1.6,-2.1"
         style="fill:none;stroke:#009600;stroke-width:0.48;stroke-linecap:butt;stroke-linejoin:round;stroke-miterlimit:1.414;stroke-dasharray:none;stroke-opacity:1"
         transform="matrix(0,0.35277776,0.35277776,0,164.9897,115.05039)"
         clip-path="url(#clipPath4371)" />
      <path
         id="path4372"
         d="M 0,0 1.6,-2.2"
         style="fill:none;stroke:#009600;stroke-width:0.48;stroke-linecap:butt;stroke-linejoin:round;stroke-miterlimit:1.414;stroke-dasharray:none;stroke-opacity:1"
         transform="matrix(0,0.35277776,0.35277776,0,164.24886,114.48595)"
         clip-path="url(#clipPath4373)" />
      <path
         id="path4374"
         d="M 0,0 -2.3,0.8"
         style="fill:none;stroke:#009600;stroke-width:0.48;stroke-linecap:butt;stroke-linejoin:round;stroke-miterlimit:1.414;stroke-dasharray:none;stroke-opacity:1"
         transform="matrix(0,0.35277776,0.35277776,0,163.47275,115.05039)"
         clip-path="url(#clipPath4375)" />
      <path
         id="path4376"
         d="M 0,0 -1.7,-2.1"
         style="fill:none;stroke:#009600;stroke-width:0.48;stroke-linecap:butt;stroke-linejoin:round;stroke-miterlimit:1.414;stroke-dasharray:none;stroke-opacity:1"
         transform="matrix(0,0.35277776,0.35277776,0,163.75498,114.239)"
         clip-path="url(#clipPath4377)" />
      <path
         id="path4378"
         d="M 0,0 V 3.4 L -3.2,4.5 -0.1,5.6 0,8.9 2.1,6.4 5.2,7.3 3,4.6 5.2,1.8 2.1,2.8 0,0"
         style="fill:#ffff00;fill-opacity:1;fill-rule:evenodd;stroke:none"
         transform="matrix(0,0.35277776,0.35277776,0,162.62609,113.53345)"
         clip-path="url(#clipPath4379)" />
      <path
         id="path4380"
         d="M 0,0 V 2.5 L -2.5,3.4 0,4.2 V 6.8 L 1.7,4.9 4,5.6 2.4,3.5 4,1.3 1.7,2.1 0,0"
         style="fill:#006900;fill-opacity:1;fill-rule:evenodd;stroke:none"
         transform="matrix(0,0.35277776,0.35277776,0,163.01414,113.63928)"
         clip-path="url(#clipPath4381)" />
    </g>
  </g>
</svg>
